<svg xmlns="http://www.w3.org/2000/svg" width="76" height="12.088" viewBox="0 0 76 12.088"><defs><style>.a,.b{fill:#0097db;}.b{opacity:0.17;}</style></defs><path class="a" d="M242.678,472.412c-1.714,1.893-3.847,4.25-7.958,4.25s-6.245-2.357-7.959-4.25c-1.472-1.626-2.535-2.8-4.805-2.8s-3.334,1.175-4.806,2.8c-1.714,1.893-3.847,4.25-7.958,4.25s-6.244-2.357-7.958-4.25c-1.472-1.626-2.535-2.8-4.806-2.8s-3.333,1.175-4.805,2.8c-1.714,1.893-3.847,4.25-7.958,4.25s-6.244-2.357-7.958-4.25c-1.472-1.626-2.535-2.8-4.8-2.8v-5.037c4.111,0,6.244,2.357,7.957,4.25,1.472,1.626,2.535,2.8,4.805,2.8s3.333-1.175,4.806-2.8c1.714-1.894,3.847-4.25,7.958-4.25s6.245,2.357,7.959,4.25c1.472,1.626,2.535,2.8,4.805,2.8s3.334-1.175,4.806-2.8c1.714-1.894,3.847-4.25,7.958-4.25s6.244,2.357,7.958,4.25c1.472,1.626,2.535,2.8,4.806,2.8s3.334-1.175,4.805-2.8c1.63-1.8,3.644-4.017,7.376-4.229v5.047C245.022,469.829,244.018,470.932,242.678,472.412Z" transform="translate(-170.902 -464.574)"/><path class="b" d="M242.678,472.412c-1.714,1.893-3.847,4.25-7.958,4.25s-6.245-2.357-7.959-4.25c-1.472-1.626-2.535-2.8-4.805-2.8s-3.334,1.175-4.806,2.8c-1.714,1.893-3.847,4.25-7.958,4.25s-6.244-2.357-7.958-4.25c-1.472-1.626-2.535-2.8-4.806-2.8s-3.333,1.175-4.805,2.8c-1.714,1.893-3.847,4.25-7.958,4.25s-6.244-2.357-7.958-4.25c-1.472-1.626-2.535-2.8-4.8-2.8v-5.037c4.111,0,6.244,2.357,7.957,4.25,1.472,1.626,2.535,2.8,4.805,2.8s3.333-1.175,4.806-2.8c1.714-1.894,3.847-4.25,7.958-4.25s6.245,2.357,7.959,4.25c1.472,1.626,2.535,2.8,4.805,2.8s3.334-1.175,4.806-2.8c1.714-1.894,3.847-4.25,7.958-4.25s6.244,2.357,7.958,4.25c1.472,1.626,2.535,2.8,4.806,2.8s3.334-1.175,4.805-2.8c1.63-1.8,3.644-4.017,7.376-4.229v5.047C245.022,469.829,244.018,470.932,242.678,472.412Z" transform="translate(-170.902 -464.574)"/></svg>